<svg class="animated" id="freepik_stories-connecting-teams" xmlns="http://www.w3.org/2000/svg" xmlns:xlink="http://www.w3.org/1999/xlink" viewBox="0 0 500 500" version="1.1" xmlns:svgjs="http://svgjs.com/svgjs"><style>svg#freepik_stories-connecting-teams:not(.animated) .animable {opacity: 0;}svg#freepik_stories-connecting-teams.animated #freepik--background-simple--inject-227 {animation: 3s Infinite  linear floating;animation-delay: 0s;}svg#freepik_stories-connecting-teams.animated #freepik--character-3--inject-227 {animation: 3s Infinite  linear wind;animation-delay: 1s;}svg#freepik_stories-connecting-teams.animated #freepik--gear-3--inject-227 {animation: 6s Infinite  linear floating;animation-delay: 0.5s;}svg#freepik_stories-connecting-teams.animated #freepik--Character2--inject-227 {animation: 3s Infinite  linear wind;animation-delay: 0s;}svg#freepik_stories-connecting-teams.animated #freepik--gear-2--inject-227 {animation: 6s Infinite  linear floating;animation-delay: 1s;}svg#freepik_stories-connecting-teams.animated #freepik--character-1--inject-227 {animation: 3s Infinite  linear wind;animation-delay: 1.5s;}svg#freepik_stories-connecting-teams.animated #freepik--gear-1--inject-227 {animation: 6s Infinite  linear floating;animation-delay: 1.5s;}            @keyframes floating {                0% {                    opacity: 1;                    transform: translateY(0px);                }                50% {                    transform: translateY(-10px);                }                100% {                    opacity: 1;                    transform: translateY(0px);                }            }                    @keyframes wind {                0% {                    transform: rotate( 0deg );                }                25% {                    transform: rotate( 1deg );                }                75% {                    transform: rotate( -1deg );                }            }        </style><g id="freepik--background-simple--inject-227" class="animable" style="transform-origin: 251.923px 255.51px;"><path d="M387.62,116.72S330.07,67.63,254.74,74.4s-96.47,43.16-120.17,82.94c-18.65,31.31-28.2,68.15-40,102.37C83.84,291.05,61.89,322,65.14,356.51c4.11,43.7,47.1,72.17,87.15,79.21,55.89,9.83,90-29.45,132.21-58.67l.24-.16a145.76,145.76,0,0,1,19.09-11.36c52.47-25.39,106.64-3.38,127.79-63.47S425.7,158.19,387.62,116.72Z" style="fill: rgb(0, 255, 128); transform-origin: 251.923px 255.51px;" id="el2nao0x0qwmy" class="animable"></path><g id="elivymuvxxkq"><path d="M387.62,116.72S330.07,67.63,254.74,74.4s-96.47,43.16-120.17,82.94c-18.65,31.31-28.2,68.15-40,102.37C83.84,291.05,61.89,322,65.14,356.51c4.11,43.7,47.1,72.17,87.15,79.21,55.89,9.83,90-29.45,132.21-58.67l.24-.16a145.76,145.76,0,0,1,19.09-11.36c52.47-25.39,106.64-3.38,127.79-63.47S425.7,158.19,387.62,116.72Z" style="fill: rgb(255, 255, 255); opacity: 0.7; transform-origin: 251.923px 255.51px;" class="animable"></path></g></g><g id="freepik--character-3--inject-227" class="animable" style="transform-origin: 329.987px 342.919px;"><g style="clip-path: url(&quot;#freepik--clip-path--inject-227&quot;); transform-origin: 329.987px 342.919px;" id="elb38k5biz0xv" class="animable"><path d="M311.71,286.65a86.39,86.39,0,0,1-12.9.91c-7.46,0-21,.68-21.72,14.71s11.32,17.2,18.1,17S305.83,317,305.83,317s4.07,20.36-3.62,31-17,15.38-19.69,28.06-1.13,16.52-1.13,16.52,36.21,14,61.1,5.88,27.6-5.66,40.95-25.35-1.58-25.11-10.18-33-19.23-15.62-16.52-26.7S362,297.52,352,288s-20.36-9.05-26-5.65S311.71,286.65,311.71,286.65Z" style="fill: rgb(38, 50, 56); stroke: rgb(38, 50, 56); stroke-linecap: round; stroke-linejoin: round; transform-origin: 332.912px 340.56px;" id="ell080nynaoo8" class="animable"></path><path d="M287.13,301.71c1.84-.21,4.14.29,6.86,2.32,7.79,5.85,15.53,7.53,24.78.71a97.75,97.75,0,0,0,14-12.23" style="fill: none; stroke: rgb(255, 255, 255); stroke-linecap: round; stroke-linejoin: round; transform-origin: 309.95px 300.844px;" id="ela6tk3w9qmxk" class="animable"></path><path d="M281.81,305A8.26,8.26,0,0,1,284,302.9" style="fill: none; stroke: rgb(255, 255, 255); stroke-linecap: round; stroke-linejoin: round; transform-origin: 282.905px 303.95px;" id="el2tns7oaejw6" class="animable"></path><path d="M364.75,380.18a10.09,10.09,0,0,1-4,2.76" style="fill: none; stroke: rgb(255, 255, 255); stroke-linecap: round; stroke-linejoin: round; transform-origin: 362.75px 381.56px;" id="el7ebey50yfjq" class="animable"></path><path d="M334.9,304s-5.84,7.8-1.95,14.62,17.54,7.79,29.72,23.37c7.74,9.91,8.78,22.38,6,31" style="fill: none; stroke: rgb(255, 255, 255); stroke-linecap: round; stroke-linejoin: round; transform-origin: 350.842px 338.495px;" id="elovfnzunecc" class="animable"></path><path d="M364.13,338.13s21.91,15.1,14.12,36" style="fill: none; stroke: rgb(255, 255, 255); stroke-linecap: round; stroke-linejoin: round; transform-origin: 372.027px 356.13px;" id="elatp8sl0rhvv" class="animable"></path><path d="M271.21,379.2s21-4.29,31.9-10.86,18.56-5.88,23.54-3.62,22,19.92,30.55,23.31l8.59,3.39s-9.27,10.87-36.43,10.19-40.73-5-48.2-10.19A28,28,0,0,1,271.21,379.2Z" style="fill: rgb(0, 255, 128); stroke: rgb(38, 50, 56); stroke-linecap: round; stroke-linejoin: round; transform-origin: 318.5px 382.382px;" id="eld4i5srszvwo" class="animable"></path><path d="M315.56,353.41a83.67,83.67,0,0,1-5.66,14.71c-4.07,8.37-5.65,14.93.46,15.38s14.93-9.05,17-14.25,6.79-26,6.79-26Z" style="fill: rgb(255, 255, 255); transform-origin: 320.226px 363.383px;" id="elhmb0o22ojhs" class="animable"></path><g style="clip-path: url(&quot;#freepik--clip-path-2--inject-227&quot;); transform-origin: 320.211px 363.366px;" id="elhao11i2jefr" class="animable"><path d="M309.9,368.12c-4.07,8.37-5.65,14.93.46,15.38a9,9,0,0,0,4.57-1.12c3.84-6,3.84-15.12,3.84-15.12l13.35-15.57c1.14-4.71,2-8.46,2-8.46l-18.56,10.18A83.67,83.67,0,0,1,309.9,368.12Z" style="fill: rgb(0, 255, 128); transform-origin: 320.211px 363.366px;" id="elw0xzo3k0se" class="animable"></path><g id="el63vjc6d25v"><path d="M309.9,368.12c-4.07,8.37-5.65,14.93.46,15.38a9,9,0,0,0,4.57-1.12c3.84-6,3.84-15.12,3.84-15.12l13.35-15.57c1.14-4.71,2-8.46,2-8.46l-18.56,10.18A83.67,83.67,0,0,1,309.9,368.12Z" style="fill: rgb(255, 255, 255); opacity: 0.5; transform-origin: 320.211px 363.366px;" class="animable"></path></g></g><path d="M315.56,353.41a83.67,83.67,0,0,1-5.66,14.71c-4.07,8.37-5.65,14.93.46,15.38s14.93-9.05,17-14.25,6.79-26,6.79-26Z" style="fill: none; stroke: rgb(38, 50, 56); stroke-linecap: round; stroke-linejoin: round; transform-origin: 320.226px 363.383px;" id="elj8x3pkel24" class="animable"></path><path d="M300.4,310.19s-2.72,20.36-3.17,31.68,5.66,17.65,10.64,17.42,25.79-12.44,26-13.12,3.39-2.49,3.39-2.49.91,2.94,4.3.45,5.43-12.22,4.53-14.93-1.81-2.27-2.72-1.81-4.52,2.94-8.6,2.48-11.76-5-12.67-13.12-.22-10.86-.22-10.86S311.71,316.07,300.4,310.19Z" style="fill: rgb(255, 255, 255); transform-origin: 321.755px 332.593px;" id="elu3433yrxtsk" class="animable"></path><g style="clip-path: url(&quot;#freepik--clip-path-3--inject-227&quot;); transform-origin: 319.393px 332.583px;" id="elxqugwy28ly" class="animable"><path d="M309.71,353.22c-6.8,1.36-8.61-4.08-8.61-7.7s1.81-13.14,1.81-13.14c-4.08-1.81-2.51-2.05,2.69-5s4.11-9.06,4.11-9.06l12-10.87a9.7,9.7,0,0,1,.19-1.57s-10.19,10.18-21.5,4.3c0,0-2.72,20.36-3.17,31.68s5.66,17.65,10.64,17.42c4.51-.2,22.05-10.27,25.45-12.65C325.37,349,314,352.37,309.71,353.22Z" style="fill: rgb(0, 255, 128); transform-origin: 315.263px 332.583px;" id="elk7aiug2sva" class="animable"></path><path d="M341.58,344.13l-3,.91C339.27,345.25,340.22,345.13,341.58,344.13Z" style="fill: rgb(0, 255, 128); transform-origin: 340.08px 344.629px;" id="elph4kr9rqde" class="animable"></path><g id="elch2l3ipq8c8"><g style="opacity: 0.5; transform-origin: 319.393px 332.583px;" class="animable"><path d="M309.71,353.22c-6.8,1.36-8.61-4.08-8.61-7.7s1.81-13.14,1.81-13.14c-4.08-1.81-2.51-2.05,2.69-5s4.11-9.06,4.11-9.06l12-10.87a9.7,9.7,0,0,1,.19-1.57s-10.19,10.18-21.5,4.3c0,0-2.72,20.36-3.17,31.68s5.66,17.65,10.64,17.42c4.51-.2,22.05-10.27,25.45-12.65C325.37,349,314,352.37,309.71,353.22Z" style="fill: rgb(255, 255, 255); transform-origin: 315.263px 332.583px;" id="elg1hz9shmq0q" class="animable"></path><path d="M341.58,344.13l-3,.91C339.27,345.25,340.22,345.13,341.58,344.13Z" style="fill: rgb(255, 255, 255); transform-origin: 340.08px 344.629px;" id="elx6a8o50mmf" class="animable"></path></g></g></g><path d="M300.4,310.19s-2.72,20.36-3.17,31.68,5.66,17.65,10.64,17.42,25.79-12.44,26-13.12,3.39-2.49,3.39-2.49.91,2.94,4.3.45,5.43-12.22,4.53-14.93-1.81-2.27-2.72-1.81-4.52,2.94-8.6,2.48-11.76-5-12.67-13.12-.22-10.86-.22-10.86S311.71,316.07,300.4,310.19Z" style="fill: none; stroke: rgb(38, 50, 56); stroke-linecap: round; stroke-linejoin: round; transform-origin: 321.755px 332.593px;" id="eldo7ta5f4db" class="animable"></path><path d="M309.45,320.82a13.41,13.41,0,0,1-3.85,6.57c-2.94,2.48-5.2,1.13-5.2,2.94s5.88,2.26,5.88,2.26" style="fill: none; stroke: rgb(38, 50, 56); stroke-linecap: round; stroke-linejoin: round; transform-origin: 304.925px 326.705px;" id="el0rq9n8j3fot" class="animable"></path><path d="M304.47,337.79s7.7,4.08,16.29-1.81" style="fill: none; stroke: rgb(38, 50, 56); stroke-linecap: round; stroke-linejoin: round; transform-origin: 312.615px 337.573px;" id="elk0qlpgyaj5d" class="animable"></path><path d="M307.23,338.82s-1,8,1.77,7.8,6.56-7.92,6.56-7.92S309.74,340.08,307.23,338.82Z" style="fill: rgb(38, 50, 56); stroke: rgb(38, 50, 56); stroke-linecap: round; stroke-linejoin: round; transform-origin: 311.307px 342.662px;" id="elyfhtpdy1kmb" class="animable"></path><path d="M318.25,324.41c-.31,1.46-1,2.57-1.45,2.46s-.63-1.38-.31-2.84,1-2.57,1.45-2.47S318.57,322.94,318.25,324.41Z" style="fill: rgb(38, 50, 56); transform-origin: 317.37px 324.216px;" id="elvzwkw3ro4y" class="animable"></path><path d="M307.17,321.47c-.32,1.46-1,2.57-1.46,2.46s-.63-1.38-.31-2.85,1-2.56,1.46-2.46S307.48,320,307.17,321.47Z" style="fill: rgb(38, 50, 56); transform-origin: 306.283px 321.276px;" id="elnm1p2qll8wo" class="animable"></path><path d="M303.73,314.26s2.44-4.38,5.85,1.46" style="fill: none; stroke: rgb(38, 50, 56); stroke-linecap: round; stroke-linejoin: round; transform-origin: 306.655px 314.202px;" id="eljuzanx8ngq" class="animable"></path><path d="M315.42,317.18s5.84-3.4,8.28,6.82" style="fill: none; stroke: rgb(38, 50, 56); stroke-linecap: round; stroke-linejoin: round; transform-origin: 319.56px 320.319px;" id="elaqz9qmbzifu" class="animable"></path><path d="M345,321.05s3-8.94-4.76-21.72c-5.88-9.73-16.06-13.81-19.91-13.58s-8.6.9-8.6.9L325.29,281s12.45,1.81,18.78,11.76,6.34,22.86,5,27.38l-1.36,4.53Z" style="fill: rgb(255, 255, 255); stroke: rgb(38, 50, 56); stroke-linecap: round; stroke-linejoin: round; transform-origin: 330.755px 302.835px;" id="ela6r0zwegdlf" class="animable"></path><path d="M320.38,355.82a2.45,2.45,0,0,1,1.85.86c17.51-6,18.32-18.82,18.34-19.4a1.18,1.18,0,0,1,1.22-1.2,1.24,1.24,0,0,1,1.12,1.31c0,.64-.83,15.17-20,21.69a2.63,2.63,0,0,1-2.52,2.24,2.76,2.76,0,0,1,0-5.5Z" style="fill: rgb(38, 50, 56); transform-origin: 330.389px 348.7px;" id="eli3bj5nk24iq" class="animable"></path><ellipse cx="344.01" cy="329.69" rx="8.4" ry="10.19" style="fill: rgb(0, 255, 128); stroke: rgb(38, 50, 56); stroke-linecap: round; stroke-linejoin: round; transform-origin: 344.01px 329.69px;" id="elj82ggs3nnm" class="animable"></ellipse><path d="M345.88,333.5s-1.13-1.82-2,3.16-.91,17-.91,17-2.26.23-5.2-6.11-2.49-7.92-3.62-4.29,2.71,10.63,3.84,12.89a22.51,22.51,0,0,0,1.81,3.17s-9,5.66-9.5,9.73,2.26,36.66,2.26,36.66l12.22-2.26-5.2-27.61s16.29-17.88,17.87-21.27-4.3-14-6.11-20.14-4.07-5.66-4.3-4.07a28.8,28.8,0,0,0-.22,3.39s-.46,13.13.45,18.1Z" style="fill: rgb(255, 255, 255); stroke: rgb(38, 50, 56); stroke-linecap: round; stroke-linejoin: round; transform-origin: 343.978px 367.52px;" id="ell67egm37egf" class="animable"></path><path d="M351.31,334.4s.91,12.45,2,16.75" style="fill: none; stroke: rgb(38, 50, 56); stroke-linecap: round; stroke-linejoin: round; transform-origin: 352.31px 342.775px;" id="elypioft5hafj" class="animable"></path></g></g><g id="freepik--gear-3--inject-227" class="animable" style="transform-origin: 320.89px 335.47px;"><path d="M410.57,346.93V328.51l-10.29-2.34a79,79,0,0,0-4.77-18.12l7.81-7.23-9.21-16L384,288a80.89,80.89,0,0,0-13.19-13.29L374,264.51l-16-9.22L350.86,263a79.81,79.81,0,0,0-18.08-4.93l-2.36-10.37H312L309.66,258a79,79,0,0,0-18.12,4.77L284.3,255l-15.95,9.21,3.12,10.09a80.84,80.84,0,0,0-13.29,13.18L248,284.32l-9.21,15.95,7.73,7.17a79.28,79.28,0,0,0-4.92,18.08l-10.38,2.36V346.3l10.29,2.34a80,80,0,0,0,4.77,18.12L238.46,374l9.22,16,10.09-3.12A80.44,80.44,0,0,0,271,400.12l-3.15,10.19,16,9.21,7.16-7.74A78.87,78.87,0,0,0,309,416.71l2.35,10.38h18.43l2.34-10.29A80.16,80.16,0,0,0,350.25,412l7.23,7.8,16-9.21-3.12-10.09a80.83,80.83,0,0,0,13.29-13.18l10.18,3.15,9.21-16-7.73-7.16a80,80,0,0,0,4.93-18.09Zm-22.77-9.52a66.91,66.91,0,1,1-66.91-66.91A66.91,66.91,0,0,1,387.8,337.41Z" style="fill: rgb(38, 50, 56); stroke: rgb(38, 50, 56); stroke-miterlimit: 10; stroke-width: 1.05114px; transform-origin: 320.895px 337.395px;" id="elirfqonm56rd" class="animable"></path><path d="M410.57,343.05V324.63l-10.29-2.34a79,79,0,0,0-4.77-18.12l7.81-7.23-9.21-16L384,284.1a80.89,80.89,0,0,0-13.19-13.29L374,260.63l-16-9.22-7.17,7.74a79.81,79.81,0,0,0-18.08-4.93l-2.36-10.37H312l-2.34,10.29a79,79,0,0,0-18.12,4.77l-7.24-7.81-15.95,9.21,3.12,10.09a80.84,80.84,0,0,0-13.29,13.18L248,280.44l-9.21,15.95,7.73,7.17a79.28,79.28,0,0,0-4.92,18.08L231.21,324v18.42l10.29,2.34a80,80,0,0,0,4.77,18.12l-7.81,7.23,9.22,16L257.77,383A80.44,80.44,0,0,0,271,396.24l-3.15,10.19,16,9.21,7.16-7.74A78.87,78.87,0,0,0,309,412.83l2.35,10.38h18.43l2.34-10.29a80.16,80.16,0,0,0,18.12-4.77l7.23,7.8,16-9.21-3.12-10.09a80.83,80.83,0,0,0,13.29-13.18l10.18,3.15,9.21-16-7.73-7.16a79.9,79.9,0,0,0,4.93-18.09Zm-22.77-9.52a66.91,66.91,0,1,1-66.91-66.91A66.91,66.91,0,0,1,387.8,333.53Z" style="fill: rgb(0, 255, 128); stroke: rgb(38, 50, 56); stroke-linecap: round; stroke-linejoin: round; transform-origin: 320.89px 333.53px;" id="elcziu11zc6rn" class="animable"></path></g><g id="freepik--Character2--inject-227" class="animable" style="transform-origin: 307.354px 169.378px;"><g style="clip-path: url(&quot;#freepik--clip-path-4--inject-227&quot;); transform-origin: 307.354px 169.378px;" id="elskvh5d1epxe" class="animable"><path d="M251.93,219.93s24.42-20.59,44.8-26.84,67,9.68,67,9.68-5.05,18.37-35.72,27.65-44,8.68-60.54,2S251.93,219.93,251.93,219.93Z" style="fill: rgb(0, 255, 128); stroke: rgb(38, 50, 56); stroke-linecap: round; stroke-linejoin: round; transform-origin: 307.824px 214.527px;" id="el3c95h9gmf5k" class="animable"></path><path d="M285.43,185.42a171.13,171.13,0,0,1,5.65,19.17c2.22,9.89,6.46,16.14,13.52,8.68s8.88-22.4,8.88-27-.4-13.53-.4-13.53-9.69,14.94-14.94,16.35S285.43,185.42,285.43,185.42Z" style="fill: rgb(255, 255, 255); transform-origin: 299.455px 194.648px;" id="el9h3awp0qha6" class="animable"></path><g style="clip-path: url(&quot;#freepik--clip-path-5--inject-227&quot;); transform-origin: 298.21px 196.795px;" id="elc801riho7u4" class="animable"><path d="M309.65,177.62c-3.3,4.48-8.25,10.55-11.51,11.43-5.24,1.41-12.71-3.63-12.71-3.63a171.13,171.13,0,0,1,5.65,19.17c1.23,5.49,3.09,9.86,5.71,11.38l14.2-36.3Z" style="fill: rgb(0, 255, 128); transform-origin: 298.21px 196.795px;" id="elkvc4cnq60u" class="animable"></path><g id="elmtzhsngvi4e"><path d="M309.65,177.62c-3.3,4.48-8.25,10.55-11.51,11.43-5.24,1.41-12.71-3.63-12.71-3.63a171.13,171.13,0,0,1,5.65,19.17c1.23,5.49,3.09,9.86,5.71,11.38l14.2-36.3Z" style="fill: rgb(255, 255, 255); opacity: 0.5; transform-origin: 298.21px 196.795px;" class="animable"></path></g></g><path d="M285.43,185.42a171.13,171.13,0,0,1,5.65,19.17c2.22,9.89,6.46,16.14,13.52,8.68s8.88-22.4,8.88-27-.4-13.53-.4-13.53-9.69,14.94-14.94,16.35S285.43,185.42,285.43,185.42Z" style="fill: none; stroke: rgb(38, 50, 56); stroke-linecap: round; stroke-linejoin: round; transform-origin: 299.455px 194.648px;" id="elvwxuszdxwq" class="animable"></path><path d="M272.31,157s-2.62-4.23-4.64-.4.81,9.49,2.83,11.91,5.24,4.23,5.65,2S272.31,157,272.31,157Z" style="fill: rgb(255, 255, 255); stroke: rgb(38, 50, 56); stroke-linecap: round; stroke-linejoin: round; transform-origin: 271.577px 163.259px;" id="elxhhr8na0rkg" class="animable"></path><path d="M257.14,120.68s-4.79,1.84-5.42,6.49a11,11,0,0,0,2,7.86s-3.39,3.34-2.63,7.59,5.78,6.22,5.78,6.22-1.35,4.22,1.06,7.21,5.89.93,5.89.93a4.76,4.76,0,0,0,2.87,4.27c3,1.31,6.93.1,6.93.1a12.48,12.48,0,0,0,3.59.68c2.67.25,5.47-2.89,5.47-2.89l43.14-6.41a7.29,7.29,0,0,0,5.18-4c1.47-3.37-2.4-11.47-2.4-11.47s4-1.64,2.82-7.58-3-7.24-3-7.24,2.5-8.23-2.17-11.89-7.54-1.8-7.54-1.8-3.69-7.88-9.5-7.54-7.47,1.6-7.47,1.6S297.46,99,293,99.55s-5.74,3.74-5.74,3.74-8.38-3.08-12.3-.16a20,20,0,0,0-5.57,6.06s-5.12-.91-7.14,2.24a14.26,14.26,0,0,0-2,7S258.16,117.94,257.14,120.68Z" style="fill: rgb(38, 50, 56); stroke: rgb(38, 50, 56); stroke-linecap: round; stroke-linejoin: round; transform-origin: 291.308px 130.77px;" id="elrrpe1zed5z" class="animable"></path><path d="M268.68,145.06a193.57,193.57,0,0,0,7.47,27.85c5,14.12,11.7,19.37,18.56,21.59s17.16-11.71,19.78-20.58,2.42-10.5,2.42-10.5,7.27-1.81,9.28-8.88-3-11.5-7.06-9.89-4.84,6.87-4.84,6.87-6.86-3.64-9.49-8.28-2.22-8.07-2.22-8.07-6.66-5.45-19.17-3.23A17.89,17.89,0,0,0,268.68,145.06Z" style="fill: rgb(255, 255, 255); transform-origin: 297.664px 163.072px;" id="elbv3be44yqck" class="animable"></path><g style="clip-path: url(&quot;#freepik--clip-path-6--inject-227&quot;); transform-origin: 291.585px 163.903px;" id="el3bafh2u2b5e" class="animable"><path d="M290.68,190.34c-4-4.15-1.1-13.16-1.1-13.16-5.48-1.1-4.93-9.88-4.93-9.88l-3.84,6s-7.68-23.05-8.23-29.08c-.46-5.08,4.88-9.75,6.59-11.11a17.71,17.71,0,0,0-10.49,11.91,193.57,193.57,0,0,0,7.47,27.85c5,14.12,11.7,19.37,18.56,21.59s17.16-11.71,19.78-20.58c0,0-6.8,9.84-9,12.58S294.71,194.5,290.68,190.34Z" style="fill: rgb(0, 255, 128); transform-origin: 291.585px 163.903px;" id="eld3340voqocm" class="animable"></path><g id="elkh6bbkf76dg"><path d="M290.68,190.34c-4-4.15-1.1-13.16-1.1-13.16-5.48-1.1-4.93-9.88-4.93-9.88l-3.84,6s-7.68-23.05-8.23-29.08c-.46-5.08,4.88-9.75,6.59-11.11a17.71,17.71,0,0,0-10.49,11.91,193.57,193.57,0,0,0,7.47,27.85c5,14.12,11.7,19.37,18.56,21.59s17.16-11.71,19.78-20.58c0,0-6.8,9.84-9,12.58S294.71,194.5,290.68,190.34Z" style="fill: rgb(255, 255, 255); opacity: 0.5; transform-origin: 291.585px 163.903px;" class="animable"></path></g></g><path d="M268.68,145.06a193.57,193.57,0,0,0,7.47,27.85c5,14.12,11.7,19.37,18.56,21.59s17.16-11.71,19.78-20.58,2.42-10.5,2.42-10.5,7.27-1.81,9.28-8.88-3-11.5-7.06-9.89-4.84,6.87-4.84,6.87-6.86-3.64-9.49-8.28-2.22-8.07-2.22-8.07-6.66-5.45-19.17-3.23A17.89,17.89,0,0,0,268.68,145.06Z" style="fill: none; stroke: rgb(38, 50, 56); stroke-linecap: round; stroke-linejoin: round; transform-origin: 297.664px 163.072px;" id="eloanzllhprm" class="animable"></path><path d="M285.23,161.2s-2.62,9.89-.4,12.51,6.65,3.23,9.68,1.82,3.43-5.05,3-5.85" style="fill: none; stroke: rgb(38, 50, 56); stroke-linecap: round; stroke-linejoin: round; transform-origin: 290.796px 168.734px;" id="el2e70mm70l54" class="animable"></path><path d="M286.64,180.17s6.06,4,13.12-1.61" style="fill: none; stroke: rgb(38, 50, 56); stroke-linecap: round; stroke-linejoin: round; transform-origin: 293.2px 180.056px;" id="ele7oybq8v3y" class="animable"></path><path d="M291.08,181.58s0,3.64,2.62,3.64,3.44-4.85,3.44-4.85A14.11,14.11,0,0,1,291.08,181.58Z" style="fill: none; stroke: rgb(38, 50, 56); stroke-linecap: round; stroke-linejoin: round; transform-origin: 294.11px 182.795px;" id="el2c62b5vm2iu" class="animable"></path><ellipse cx="299.66" cy="161.81" rx="1.31" ry="2.02" style="fill: rgb(38, 50, 56); transform-origin: 299.66px 161.81px;" id="elzf6d9ufeh4" class="animable"></ellipse><ellipse cx="280.69" cy="163.83" rx="1.31" ry="2.02" style="fill: rgb(38, 50, 56); transform-origin: 280.69px 163.83px;" id="el15ch0je50zt" class="animable"></ellipse><path d="M274.13,155.75a8.51,8.51,0,0,1,7.87-4.64" style="fill: none; stroke: rgb(38, 50, 56); stroke-linecap: round; stroke-linejoin: round; stroke-width: 2.38218px; transform-origin: 278.065px 153.428px;" id="elqvaa62w379q" class="animable"></path><path d="M293.3,150.3s6.46-2.42,10.49,2.83" style="fill: none; stroke: rgb(38, 50, 56); stroke-linecap: round; stroke-linejoin: round; stroke-width: 2.38218px; transform-origin: 298.545px 151.437px;" id="eluh2335vxl5" class="animable"></path><path d="M319.94,161.2a77.36,77.36,0,0,1-6.86,27.65,106.35,106.35,0,0,1-16.35,24s-6.86-.8-16.34-15.74a68.2,68.2,0,0,1-10.3-29.66" style="fill: none; stroke: rgb(38, 50, 56); stroke-linecap: round; stroke-linejoin: round; transform-origin: 295.015px 187.025px;" id="elw4uvbat51ul" class="animable"></path><path d="M322.16,157.77s1.41-4.24-.2-5.25-3.23,1.82-2.83,3.23l.4,1.42s-.2,3.83.41,4S322.16,157.77,322.16,157.77Z" style="fill: none; stroke: rgb(38, 50, 56); stroke-linecap: round; stroke-linejoin: round; transform-origin: 320.9px 156.741px;" id="el7mh2ex292yu" class="animable"></path><path d="M296.73,212.86s2,16.75,5.45,26" style="fill: none; stroke: rgb(38, 50, 56); stroke-linecap: round; stroke-linejoin: round; transform-origin: 299.455px 225.86px;" id="elojpeu281yaq" class="animable"></path><path d="M315.7,182.39s-6.46,3.23-5.85,5.65a3,3,0,0,0,4.24,2c1.41-.61,5.24-2,5.24-2l2.63,5.25s-4.44-2.83-6.66-2a15.34,15.34,0,0,0-4.24,2.62,2.48,2.48,0,0,0-3.43,1,10.63,10.63,0,0,0-1.62,4,5.86,5.86,0,0,0-2.22,4.44c0,2.82,0,5,1.82,6.66s3,1.61,3,1.61l1.61,1s-4,8.88-1.61,13.52,3.63,4.24,3.63,4.24l4.84,8.88L330,236.07l-6.66-14.93s11.1-22.81,9.89-26.44S327,186.43,324,183.4A6.36,6.36,0,0,0,315.7,182.39Z" style="fill: rgb(255, 255, 255); transform-origin: 318.556px 210.276px;" id="elefxo038t8u6" class="animable"></path><g style="clip-path: url(&quot;#freepik--clip-path-7--inject-227&quot;); transform-origin: 314.205px 208.506px;" id="elu7cl17y949p" class="animable"><path d="M309.82,205c-1.3-.21-3.57-2.37-5.33-4.23a5.29,5.29,0,0,0-.7,2.63c0,2.82,0,5,1.82,6.66s3,1.61,3,1.61l1.61,1s-4,8.88-1.61,13.52,3.63,4.24,3.63,4.24c-2.62-3.39,1.45-9.47,1.84-14.53S312.16,205.37,309.82,205Z" style="fill: rgb(0, 255, 128); transform-origin: 308.957px 215.604px;" id="elyw0wmgzpgp" class="animable"></path><path d="M312.27,230.42l1.21,2.22A9.14,9.14,0,0,0,312.27,230.42Z" style="fill: rgb(0, 255, 128); transform-origin: 312.875px 231.53px;" id="elahkhdqkxhv9" class="animable"></path><path d="M314,191.87a17.07,17.07,0,0,0-2.92,2,2.65,2.65,0,0,0-1.95-.22l8.11,3.91S313.59,193.46,314,191.87Z" style="fill: rgb(0, 255, 128); transform-origin: 313.185px 194.715px;" id="elbcvwuvmyoga" class="animable"></path><path d="M305.35,199.56l6.42,3.09L307.55,195a10.7,10.7,0,0,0-1.54,3.9A5.71,5.71,0,0,0,305.35,199.56Z" style="fill: rgb(0, 255, 128); transform-origin: 308.56px 198.825px;" id="elihqr97rc4s" class="animable"></path><path d="M314.09,190.06c1.41-.61,5.24-2,5.24-2l2.63,5.25s-4.44-2.83-6.66-2c3.91.31,9.32,5.15,9.32,5.15s-2.33-12.47-7-12.08a23.4,23.4,0,0,0-7.31,2.09,2,2,0,0,0-.45,1.61A3,3,0,0,0,314.09,190.06Z" style="fill: rgb(0, 255, 128); transform-origin: 317.227px 190.416px;" id="elyx17obeuaa" class="animable"></path><g id="elfaxo4w0v915"><g style="opacity: 0.5; transform-origin: 314.205px 208.506px;" class="animable"><path d="M309.82,205c-1.3-.21-3.57-2.37-5.33-4.23a5.29,5.29,0,0,0-.7,2.63c0,2.82,0,5,1.82,6.66s3,1.61,3,1.61l1.61,1s-4,8.88-1.61,13.52,3.63,4.24,3.63,4.24c-2.62-3.39,1.45-9.47,1.84-14.53S312.16,205.37,309.82,205Z" style="fill: rgb(255, 255, 255); transform-origin: 308.957px 215.604px;" id="el9lf8juxiwlc" class="animable"></path><path d="M312.27,230.42l1.21,2.22A9.14,9.14,0,0,0,312.27,230.42Z" style="fill: rgb(255, 255, 255); transform-origin: 312.875px 231.53px;" id="el88yp5sqoch2" class="animable"></path><path d="M314,191.87a17.07,17.07,0,0,0-2.92,2,2.65,2.65,0,0,0-1.95-.22l8.11,3.91S313.59,193.46,314,191.87Z" style="fill: rgb(255, 255, 255); transform-origin: 313.185px 194.715px;" id="eld6sunp8a54k" class="animable"></path><path d="M305.35,199.56l6.42,3.09L307.55,195a10.7,10.7,0,0,0-1.54,3.9A5.71,5.71,0,0,0,305.35,199.56Z" style="fill: rgb(255, 255, 255); transform-origin: 308.56px 198.825px;" id="eljabchicpzw" class="animable"></path><path d="M314.09,190.06c1.41-.61,5.24-2,5.24-2l2.63,5.25s-4.44-2.83-6.66-2c3.91.31,9.32,5.15,9.32,5.15s-2.33-12.47-7-12.08a23.4,23.4,0,0,0-7.31,2.09,2,2,0,0,0-.45,1.61A3,3,0,0,0,314.09,190.06Z" style="fill: rgb(255, 255, 255); transform-origin: 317.227px 190.416px;" id="eljvaftvbsmf" class="animable"></path></g></g></g><path d="M315.7,182.39s-6.46,3.23-5.85,5.65a3,3,0,0,0,4.24,2c1.41-.61,5.24-2,5.24-2l2.63,5.25s-4.44-2.83-6.66-2a15.34,15.34,0,0,0-4.24,2.62,2.48,2.48,0,0,0-3.43,1,10.63,10.63,0,0,0-1.62,4,5.86,5.86,0,0,0-2.22,4.44c0,2.82,0,5,1.82,6.66s3,1.61,3,1.61l1.61,1s-4,8.88-1.61,13.52,3.63,4.24,3.63,4.24l4.84,8.88L330,236.07l-6.66-14.93s11.1-22.81,9.89-26.44S327,186.43,324,183.4A6.36,6.36,0,0,0,315.7,182.39Z" style="fill: none; stroke: rgb(38, 50, 56); stroke-linecap: round; stroke-linejoin: round; transform-origin: 318.556px 210.276px;" id="elat09ohe5bl" class="animable"></path><line x1="321.96" y1="193.29" x2="325.59" y2="197.73" style="fill: none; stroke: rgb(38, 50, 56); stroke-linecap: round; stroke-linejoin: round; transform-origin: 323.775px 195.51px;" id="eln2jxx91vtfr" class="animable"></line><line x1="311.06" y1="193.89" x2="319.13" y2="200.15" style="fill: none; stroke: rgb(38, 50, 56); stroke-linecap: round; stroke-linejoin: round; transform-origin: 315.095px 197.02px;" id="el15tp41d2nhbh" class="animable"></line><line x1="306.01" y1="198.94" x2="313.88" y2="204.59" style="fill: none; stroke: rgb(38, 50, 56); stroke-linecap: round; stroke-linejoin: round; transform-origin: 309.945px 201.765px;" id="elxc12rod2c3g" class="animable"></line><path d="M310.25,212.66a8.28,8.28,0,0,1-2.82-5.85" style="fill: none; stroke: rgb(38, 50, 56); stroke-linecap: round; stroke-linejoin: round; transform-origin: 308.84px 209.735px;" id="el9aqyn51uxo" class="animable"></path></g></g><g id="freepik--gear-2--inject-227" class="animable animator-active" style="transform-origin: 297.305px 163.605px;"><path d="M387,175.09V156.66l-10.29-2.34a79.64,79.64,0,0,0-4.77-18.12l7.81-7.23-9.21-16-10.09,3.12a81,81,0,0,0-13.19-13.3l3.15-10.18-15.95-9.21-7.17,7.73a79.81,79.81,0,0,0-18.08-4.93l-2.36-10.37H288.4l-2.34,10.29a79.37,79.37,0,0,0-18.12,4.77l-7.24-7.81-15.95,9.21,3.12,10.09a80.5,80.5,0,0,0-13.29,13.19l-10.19-3.15-9.21,15.95,7.73,7.17A79.81,79.81,0,0,0,218,153.67L207.61,156v18.42l10.29,2.35a79.94,79.94,0,0,0,4.77,18.11l-7.81,7.24,9.21,15.95,10.1-3.12a80.06,80.06,0,0,0,13.18,13.29l-3.15,10.19,16,9.21,7.16-7.73a80,80,0,0,0,18.08,4.93l2.36,10.37h18.43L308.53,245a80.16,80.16,0,0,0,18.12-4.77l7.23,7.81,15.95-9.21-3.12-10.1A80.5,80.5,0,0,0,360,215.5l10.18,3.15,9.21-16-7.73-7.17a79.81,79.81,0,0,0,4.93-18.08Zm-22.77-9.53a66.91,66.91,0,1,1-66.91-66.9A66.91,66.91,0,0,1,364.2,165.56Z" style="fill: rgb(38, 50, 56); stroke: rgb(38, 50, 56); stroke-miterlimit: 10; stroke-width: 1.05114px; transform-origin: 297.305px 165.52px;" id="el1bpaghso65j" class="animable"></path><path d="M387,171.21V152.78l-10.29-2.34a79.42,79.42,0,0,0-4.77-18.11l7.81-7.24-9.21-16-10.09,3.12A81,81,0,0,0,347.23,99l3.15-10.18-15.95-9.21-7.17,7.73a79.81,79.81,0,0,0-18.08-4.93L306.82,72H288.4l-2.34,10.29a79.37,79.37,0,0,0-18.12,4.77l-7.24-7.81-15.95,9.21,3.12,10.1a80.06,80.06,0,0,0-13.29,13.18l-10.19-3.15-9.21,16,7.73,7.17A79.81,79.81,0,0,0,218,149.79l-10.37,2.36v18.42l10.29,2.35A79.94,79.94,0,0,0,222.67,191l-7.81,7.24,9.21,15.95,10.1-3.12a80.5,80.5,0,0,0,13.18,13.3l-3.15,10.18,16,9.21,7.16-7.73A80,80,0,0,0,285.4,241l2.36,10.37h18.43l2.34-10.29a80.16,80.16,0,0,0,18.12-4.77l7.23,7.81,15.95-9.21-3.12-10.1A80.5,80.5,0,0,0,360,211.62l10.18,3.15,9.21-16-7.73-7.17a79.81,79.81,0,0,0,4.93-18.08Zm-22.77-9.53a66.91,66.91,0,1,1-66.91-66.9A66.91,66.91,0,0,1,364.2,161.68Z" style="fill: rgb(0, 255, 128); stroke: rgb(38, 50, 56); stroke-linecap: round; stroke-linejoin: round; transform-origin: 297.315px 161.685px;" id="el48rys9a3igb" class="animable"></path></g><g id="freepik--character-1--inject-227" class="animable" style="transform-origin: 160.165px 278.9px;"><g style="clip-path: url(&quot;#freepik--clip-path-8--inject-227&quot;); transform-origin: 160.165px 278.9px;" id="elqd0gbztx82" class="animable"><path d="M139.5,304.76s5,18.95,10.05,27.32,8,11.45,8,11.45a81.57,81.57,0,0,1-35.62-13.21C105,318.64,93.84,296,93.84,296l29.68-11.45Z" style="fill: rgb(0, 255, 128); stroke: rgb(38, 50, 56); stroke-linecap: round; stroke-linejoin: round; stroke-width: 1.32365px; transform-origin: 125.695px 314.04px;" id="el5tfjfwbu73j" class="animable"></path><path d="M148.08,303.23a25.72,25.72,0,0,0-1.29,6c-.22,3,0,6.86-1.29,6s-4.71-8.15-4.71-8.15Z" style="fill: rgb(38, 50, 56); stroke: rgb(38, 50, 56); stroke-linecap: round; stroke-linejoin: round; transform-origin: 144.435px 309.291px;" id="el5jrpy8rqnaa" class="animable"></path><polygon points="136.28 288.87 148.07 303.23 138 311.16 130.28 297.23 136.28 288.87" style="fill: rgb(255, 255, 255); stroke: rgb(38, 50, 56); stroke-linecap: round; stroke-linejoin: round; transform-origin: 139.175px 300.015px;" id="elhepdkbj6mno" class="animable"></polygon><path d="M136.28,257.57s-3.21,10.72-5.78,16.51a73.86,73.86,0,0,0-3.43,8.78,33.45,33.45,0,0,0,3.21,9.44c2.79,5.79,5.15,9.64,5.36,9s-1.28-4.93,4.93-12.65,9.22-11.14,9.22-11.14Z" style="fill: rgb(255, 255, 255); transform-origin: 138.43px 279.47px;" id="el2uevr9cr828" class="animable"></path><g style="clip-path: url(&quot;#freepik--clip-path-9--inject-227&quot;); transform-origin: 137.54px 272.935px;" id="elf4mb37y7fb" class="animable"><path d="M146.82,281l1.21-2L144.39,271l-.66-2.41-6.12-9-2,.16c-1.07,3.42-3.27,10.19-5.13,14.39a73.86,73.86,0,0,0-3.43,8.78,16.49,16.49,0,0,0,.41,2l15.06,1.36C144.29,284.07,145.71,282.34,146.82,281Z" style="fill: rgb(0, 255, 128); transform-origin: 137.54px 272.935px;" id="elbthz75eo7u" class="animable"></path><g id="elmsvqtv0sv7"><path d="M146.82,281l1.21-2L144.39,271l-.66-2.41-6.12-9-2,.16c-1.07,3.42-3.27,10.19-5.13,14.39a73.86,73.86,0,0,0-3.43,8.78,16.49,16.49,0,0,0,.41,2l15.06,1.36C144.29,284.07,145.71,282.34,146.82,281Z" style="fill: rgb(255, 255, 255); opacity: 0.5; transform-origin: 137.54px 272.935px;" class="animable"></path></g></g><path d="M136.28,257.57s-3.21,10.72-5.78,16.51a73.86,73.86,0,0,0-3.43,8.78,33.45,33.45,0,0,0,3.21,9.44c2.79,5.79,5.15,9.64,5.36,9s-1.28-4.93,4.93-12.65,9.22-11.14,9.22-11.14Z" style="fill: none; stroke: rgb(38, 50, 56); stroke-linecap: round; stroke-linejoin: round; transform-origin: 138.43px 279.47px;" id="elfgza2lsgczg" class="animable"></path><path d="M126.85,276.43a35.88,35.88,0,0,0,5.36,14.37,111.09,111.09,0,0,0,8.15,10.72L128,316.33a53.9,53.9,0,0,0-4.15-16.1,53.13,53.13,0,0,1-4.29-14.58Z" style="fill: rgb(255, 255, 255); stroke: rgb(38, 50, 56); stroke-linecap: round; stroke-linejoin: round; transform-origin: 129.96px 296.38px;" id="ely6f1sb3csw" class="animable"></path><path d="M186.23,246.85s-6,22.29-13.93,34.3-14.36,13.29-19.94,10.93-11.79-15-13.72-19.93-3-7.72-3-7.72-3.64,6.22-7.93-1.29-3.43-14.58-.64-17.58a11,11,0,0,1,6-3.43s9.22-1.28,7.72-6.21,14.36-16.94,32.58-13.08S186.23,246.85,186.23,246.85Z" style="fill: rgb(255, 255, 255); transform-origin: 155.85px 257.573px;" id="eluzdxn6n85b" class="animable"></path><g style="clip-path: url(&quot;#freepik--clip-path-10--inject-227&quot;); transform-origin: 155.85px 257.571px;" id="elgwchi8012un" class="animable"><path d="M173.37,222.84c-18.22-3.86-34.08,8.15-32.58,13.08s-7.72,6.21-7.72,6.21a11,11,0,0,0-6,3.43c-2.79,3-3.65,10.08.64,17.58s7.93,1.29,7.93,1.29,1.07,2.79,3,7.72,8.15,17.57,13.72,19.93c3.95,1.67,8.33,1.51,13.36-3a25.33,25.33,0,0,1-11.23.86c-8.89-1.62-13.33-15.35-11.71-24.24s4-14.54,8.07-19.79a13.45,13.45,0,0,0,2.83-10.5s12.62,11.64,16.16,12.12,5.65-3.64,5.65-3.64,5.25,8.89,8.89,8.89h.1c1.12-3.58,1.75-5.93,1.75-5.93S191.59,226.7,173.37,222.84Z" style="fill: rgb(0, 255, 128); transform-origin: 155.85px 257.571px;" id="el3hh5k5r8e5b" class="animable"></path><g id="eloypnu5m5mh"><path d="M173.37,222.84c-18.22-3.86-34.08,8.15-32.58,13.08s-7.72,6.21-7.72,6.21a11,11,0,0,0-6,3.43c-2.79,3-3.65,10.08.64,17.58s7.93,1.29,7.93,1.29,1.07,2.79,3,7.72,8.15,17.57,13.72,19.93c3.95,1.67,8.33,1.51,13.36-3a25.33,25.33,0,0,1-11.23.86c-8.89-1.62-13.33-15.35-11.71-24.24s4-14.54,8.07-19.79a13.45,13.45,0,0,0,2.83-10.5s12.62,11.64,16.16,12.12,5.65-3.64,5.65-3.64,5.25,8.89,8.89,8.89h.1c1.12-3.58,1.75-5.93,1.75-5.93S191.59,226.7,173.37,222.84Z" style="fill: rgb(255, 255, 255); opacity: 0.5; transform-origin: 155.85px 257.571px;" class="animable"></path></g><path d="M160.26,263.84s6.32-14.38,5.79-9.16-1.21,14.5-3.08,14.3S160.26,263.84,160.26,263.84Z" style="fill: rgb(0, 255, 128); transform-origin: 163.171px 261.261px;" id="elfalgryes15u" class="animable"></path><g id="elly4oempz5cr"><path d="M160.26,263.84s6.32-14.38,5.79-9.16-1.21,14.5-3.08,14.3S160.26,263.84,160.26,263.84Z" style="fill: rgb(255, 255, 255); opacity: 0.5; transform-origin: 163.171px 261.261px;" class="animable"></path></g></g><path d="M186.23,246.85s-6,22.29-13.93,34.3-14.36,13.29-19.94,10.93-11.79-15-13.72-19.93-3-7.72-3-7.72-3.64,6.22-7.93-1.29-3.43-14.58-.64-17.58a11,11,0,0,1,6-3.43s9.22-1.28,7.72-6.21,14.36-16.94,32.58-13.08S186.23,246.85,186.23,246.85Z" style="fill: none; stroke: rgb(38, 50, 56); stroke-linecap: round; stroke-linejoin: round; transform-origin: 155.85px 257.573px;" id="el3q4n8ron5gy" class="animable"></path><path d="M172.3,254.35s-2.36,10.29-2.79,15-.43,5.57-4.93,3.86-5.79-7.08-5.79-7.08" style="fill: none; stroke: rgb(38, 50, 56); stroke-linecap: round; stroke-linejoin: round; transform-origin: 165.545px 264.186px;" id="elzb9p5ckg2ba" class="animable"></path><path d="M152.36,264.86c-.85,0-6,1.28-6,1.28" style="fill: none; stroke: rgb(38, 50, 56); stroke-linecap: round; stroke-linejoin: round; transform-origin: 149.36px 265.5px;" id="elxjnh2l02d5" class="animable"></path><path d="M149.58,265.93s.85,7.93,6.64,9.65" style="fill: none; stroke: rgb(38, 50, 56); stroke-linecap: round; stroke-linejoin: round; transform-origin: 152.9px 270.755px;" id="elodilfo0pze" class="animable"></path><path d="M163.27,254.4c-.32,1.39-1.1,2.39-1.73,2.24s-.89-1.38-.57-2.77,1.09-2.38,1.73-2.24S163.59,253,163.27,254.4Z" style="fill: rgb(38, 50, 56); transform-origin: 162.121px 254.136px;" id="elsgpmcvnrza" class="animable"></path><path d="M177.45,259.07c-.32,1.38-1.1,2.39-1.73,2.24s-.89-1.39-.57-2.77,1.09-2.39,1.73-2.24S177.77,257.68,177.45,259.07Z" style="fill: rgb(38, 50, 56); transform-origin: 176.301px 258.805px;" id="ela4wbf1ylehn" class="animable"></path><path d="M158.79,247.92s2.79-4.29,7.51-.86" style="fill: none; stroke: rgb(38, 50, 56); stroke-linecap: round; stroke-linejoin: round; transform-origin: 162.545px 246.825px;" id="elcj0wg3zlvoa" class="animable"></path><path d="M174.66,251.78s4.29-3.22,6.86,3" style="fill: none; stroke: rgb(38, 50, 56); stroke-linecap: round; stroke-linejoin: round; transform-origin: 178.09px 252.863px;" id="elcj7x0mgbrzb" class="animable"></path><path d="M145.29,246.42a5.21,5.21,0,0,0-2.36,3.43c-.43,2.36.43,6.86-3.22,7.29s-7.71-3.22-9.21-3.86-3.43,2.79-6.22-6.43,2.36-24.65,7.93-26.8,12.86-1.71,12.86-1.71,4.93-5.79,21.87-5.79,29.58,8.15,26.58,10.29-4.71,2.36-4.71,2.36,9.43,7.29,9,15.86-7.93,9.86-14.15,7.29-11.57-12.43-11.57-12.43,3.64,10.29-.86,8.79-9.43-9.22-16.29-11.58-8.15-1.29-8.15-1.29,10.5,3.86,6.22,8.58S145.29,246.42,145.29,246.42Z" style="fill: rgb(38, 50, 56); stroke: rgb(38, 50, 56); stroke-linecap: round; stroke-linejoin: round; transform-origin: 160.661px 234.863px;" id="el48wpc0xc3dh" class="animable"></path><path d="M129.21,247.06s4.72-28.72,11.58-31.51,8.57-.86,8.57-.86-12,14.79-15.86,31.3Z" style="fill: rgb(255, 255, 255); stroke: rgb(38, 50, 56); stroke-linecap: round; stroke-linejoin: round; transform-origin: 139.285px 230.55px;" id="eln3lm5gek4wk" class="animable"></path><path d="M157.29,281.37a2.75,2.75,0,0,0-2,.87c-19-6-19.86-19-19.89-19.58a1.23,1.23,0,0,0-1.31-1.21,1.26,1.26,0,0,0-1.21,1.32c0,.64.89,15.32,21.69,21.9a2.78,2.78,0,1,0,2.72-3.3Z" style="fill: rgb(38, 50, 56); transform-origin: 146.48px 274.189px;" id="elueu00xby3nd" class="animable"></path><ellipse cx="131.68" cy="255" rx="9.11" ry="10.29" style="fill: rgb(0, 255, 128); stroke: rgb(38, 50, 56); stroke-linecap: round; stroke-linejoin: round; transform-origin: 131.68px 255px;" id="eln6ftajoykh" class="animable"></ellipse><path d="M156.65,345.25,166.36,320a4.86,4.86,0,0,1,3.79-3.07l54.21-8.65a1.84,1.84,0,0,1,1.95,2.61L216,332.39Z" style="fill: rgb(38, 50, 56); stroke: rgb(38, 50, 56); stroke-linecap: round; stroke-linejoin: round; transform-origin: 191.57px 326.754px;" id="elb0t4gsyb26l" class="animable"></path></g></g><g id="freepik--gear-1--inject-227" class="animable" style="transform-origin: 159.07px 269.77px;"><path d="M248.75,281.25V262.83l-10.29-2.34a80,80,0,0,0-4.77-18.12l7.8-7.23-9.21-16-10.09,3.12A80.44,80.44,0,0,0,209,209l3.15-10.19-16-9.21L189,197.35A79,79,0,0,0,171,192.42l-2.36-10.37H150.17l-2.34,10.28a80,80,0,0,0-18.12,4.77l-7.23-7.8-16,9.21,3.12,10.09a80.83,80.83,0,0,0-13.29,13.18l-10.18-3.15-9.22,16,7.74,7.16a80,80,0,0,0-4.93,18.09L69.39,262.2v18.42L79.68,283a79,79,0,0,0,4.77,18.12l-7.81,7.23,9.21,16,10.09-3.12a81.23,81.23,0,0,0,13.18,13.29L106,344.63l16,9.21,7.17-7.74A79.3,79.3,0,0,0,147.18,351l2.36,10.37H168l2.34-10.29a79.49,79.49,0,0,0,18.12-4.76l7.23,7.8,16-9.21-3.12-10.09a80.44,80.44,0,0,0,13.29-13.18L232,324.82l9.21-16-7.74-7.17a78.79,78.79,0,0,0,4.93-18.08ZM226,271.72a66.91,66.91,0,1,1-66.9-66.9A66.91,66.91,0,0,1,226,271.72Z" style="fill: rgb(38, 50, 56); stroke: rgb(38, 50, 56); stroke-miterlimit: 10; stroke-width: 1.05114px; transform-origin: 159.07px 271.71px;" id="el9ob9ob9jbv" class="animable"></path><path d="M248.75,277.37V259l-10.29-2.34a80,80,0,0,0-4.77-18.12l7.8-7.23-9.21-16-10.09,3.12A80.44,80.44,0,0,0,209,205.13l3.15-10.19-16-9.21L189,193.47A79.52,79.52,0,0,0,171,188.54l-2.36-10.37H150.17l-2.34,10.29a79.49,79.49,0,0,0-18.12,4.76l-7.23-7.8-16,9.21,3.12,10.09A80.83,80.83,0,0,0,96.35,217.9l-10.18-3.15-9.22,16,7.74,7.16A80,80,0,0,0,79.76,256l-10.37,2.36v18.42l10.29,2.34a79,79,0,0,0,4.77,18.12l-7.81,7.23,9.21,16,10.09-3.12a81.23,81.23,0,0,0,13.18,13.29L106,340.75l16,9.21,7.17-7.74a79.3,79.3,0,0,0,18.08,4.93l2.36,10.37H168l2.34-10.29a79.49,79.49,0,0,0,18.12-4.76l7.23,7.8,16-9.21L208.49,331a80.44,80.44,0,0,0,13.29-13.18L232,320.94l9.21-16-7.74-7.16a79,79,0,0,0,4.93-18.09ZM226,267.84a66.91,66.91,0,1,1-66.9-66.9A66.91,66.91,0,0,1,226,267.84Z" style="fill: rgb(0, 255, 128); stroke: rgb(38, 50, 56); stroke-linecap: round; stroke-linejoin: round; transform-origin: 159.07px 267.845px;" id="elyub725rmffj" class="animable"></path></g><defs>     <filter id="active" height="200%">         <feMorphology in="SourceAlpha" result="DILATED" operator="dilate" radius="2"></feMorphology>                <feFlood flood-color="#32DFEC" flood-opacity="1" result="PINK"></feFlood>        <feComposite in="PINK" in2="DILATED" operator="in" result="OUTLINE"></feComposite>        <feMerge>            <feMergeNode in="OUTLINE"></feMergeNode>            <feMergeNode in="SourceGraphic"></feMergeNode>        </feMerge>    </filter>    <filter id="hover" height="200%">        <feMorphology in="SourceAlpha" result="DILATED" operator="dilate" radius="2"></feMorphology>                <feFlood flood-color="#ff0000" flood-opacity="0.5" result="PINK"></feFlood>        <feComposite in="PINK" in2="DILATED" operator="in" result="OUTLINE"></feComposite>        <feMerge>            <feMergeNode in="OUTLINE"></feMergeNode>            <feMergeNode in="SourceGraphic"></feMergeNode>        </feMerge>            <feColorMatrix type="matrix" values="0   0   0   0   0                0   1   0   0   0                0   0   0   0   0                0   0   0   1   0 "></feColorMatrix>    </filter></defs><defs><clipPath id="freepik--clip-path--inject-227"><circle cx="320.89" cy="333.53" r="73.75" style="fill:none"></circle></clipPath><clipPath id="freepik--clip-path-2--inject-227"><path d="M315.56,353.41a83.67,83.67,0,0,1-5.66,14.71c-4.07,8.37-5.65,14.93.46,15.38s14.93-9.05,17-14.25,6.79-26,6.79-26Z" style="fill:#fff;stroke:#263238;stroke-linecap:round;stroke-linejoin:round"></path></clipPath><clipPath id="freepik--clip-path-3--inject-227"><path d="M300.4,310.19s-2.72,20.36-3.17,31.68,5.66,17.65,10.64,17.42,25.79-12.44,26-13.12,3.39-2.49,3.39-2.49.91,2.94,4.3.45,5.43-12.22,4.53-14.93-1.81-2.27-2.72-1.81-4.52,2.94-8.6,2.48-11.76-5-12.67-13.12-.22-10.86-.22-10.86S311.71,316.07,300.4,310.19Z" style="fill:#fff;stroke:#263238;stroke-linecap:round;stroke-linejoin:round"></path></clipPath><clipPath id="freepik--clip-path-4--inject-227"><circle cx="297.29" cy="161.68" r="73.75" transform="translate(-27.25 257.57) rotate(-45)" style="fill:none"></circle></clipPath><clipPath id="freepik--clip-path-5--inject-227"><path d="M285.43,185.42a171.13,171.13,0,0,1,5.65,19.17c2.22,9.89,6.46,16.14,13.52,8.68s8.88-22.4,8.88-27-.4-13.53-.4-13.53-9.69,14.94-14.94,16.35S285.43,185.42,285.43,185.42Z" style="fill:#fff;stroke:#263238;stroke-linecap:round;stroke-linejoin:round"></path></clipPath><clipPath id="freepik--clip-path-6--inject-227"><path d="M268.68,145.06a193.57,193.57,0,0,0,7.47,27.85c5,14.12,11.7,19.37,18.56,21.59s17.16-11.71,19.78-20.58,2.42-10.5,2.42-10.5,7.27-1.81,9.28-8.88-3-11.5-7.06-9.89-4.84,6.87-4.84,6.87-6.86-3.64-9.49-8.28-2.22-8.07-2.22-8.07-6.66-5.45-19.17-3.23A17.89,17.89,0,0,0,268.68,145.06Z" style="fill:#fff;stroke:#263238;stroke-linecap:round;stroke-linejoin:round"></path></clipPath><clipPath id="freepik--clip-path-7--inject-227"><path d="M315.7,182.39s-6.46,3.23-5.85,5.65a3,3,0,0,0,4.24,2c1.41-.61,5.24-2,5.24-2l2.63,5.25s-4.44-2.83-6.66-2a15.34,15.34,0,0,0-4.24,2.62,2.48,2.48,0,0,0-3.43,1,10.63,10.63,0,0,0-1.62,4,5.86,5.86,0,0,0-2.22,4.44c0,2.82,0,5,1.82,6.66s3,1.61,3,1.61l1.61,1s-4,8.88-1.61,13.52,3.63,4.24,3.63,4.24l4.84,8.88L330,236.07l-6.66-14.93s11.1-22.81,9.89-26.44S327,186.43,324,183.4A6.36,6.36,0,0,0,315.7,182.39Z" style="fill:#fff;stroke:#263238;stroke-linecap:round;stroke-linejoin:round"></path></clipPath><clipPath id="freepik--clip-path-8--inject-227"><circle cx="159.07" cy="267.84" r="73.75" style="fill:none"></circle></clipPath><clipPath id="freepik--clip-path-9--inject-227"><path d="M136.28,257.57s-3.21,10.72-5.78,16.51a73.86,73.86,0,0,0-3.43,8.78,33.45,33.45,0,0,0,3.21,9.44c2.79,5.79,5.15,9.64,5.36,9s-1.28-4.93,4.93-12.65,9.22-11.14,9.22-11.14Z" style="fill:#fff;stroke:#263238;stroke-linecap:round;stroke-linejoin:round"></path></clipPath><clipPath id="freepik--clip-path-10--inject-227"><path d="M186.23,246.85s-6,22.29-13.93,34.3-14.36,13.29-19.94,10.93-11.79-15-13.72-19.93-3-7.72-3-7.72-3.64,6.22-7.93-1.29-3.43-14.58-.64-17.58a11,11,0,0,1,6-3.43s9.22-1.28,7.72-6.21,14.36-16.94,32.58-13.08S186.23,246.85,186.23,246.85Z" style="fill:#fff;stroke:#263238;stroke-linecap:round;stroke-linejoin:round"></path></clipPath></defs></svg>